<svg xmlns="http://www.w3.org/2000/svg" width="55" height="62" viewBox="0 0 55 62">
    <g fill="#4FB79B" fill-rule="nonzero">
        <path d="M45.724 43.116a1.857 1.857 0 0 1 2.532-.61l3.875 2.319C54.007 40.583 55 35.875 55 31c0-4.876-.993-9.583-2.87-13.825l-3.874 2.32a1.854 1.854 0 0 1-.955.264c-.623 0-1.23-.311-1.577-.874a1.801 1.801 0 0 1 .619-2.495l4.121-2.467a30.86 30.86 0 0 0-3.429-4.748C41.833 3.258 34.895 0 27.5 0 20.104 0 13.167 3.258 7.965 9.175a30.793 30.793 0 0 0-3.429 4.747l4.121 2.467c.87.521 1.147 1.638.619 2.495a1.848 1.848 0 0 1-1.577.875c-.326 0-.656-.086-.955-.264l-3.874-2.32C.993 21.417 0 26.125 0 31c0 4.876.993 9.583 2.869 13.825l3.875-2.32a1.858 1.858 0 0 1 2.532.61 1.801 1.801 0 0 1-.619 2.495l-4.121 2.467a30.833 30.833 0 0 0 3.429 4.749C13.167 58.742 20.104 62 27.5 62c7.396 0 14.334-3.258 19.535-9.174a30.887 30.887 0 0 0 3.43-4.748l-4.122-2.467a1.801 1.801 0 0 1-.619-2.495zm-15.53-7.114l-.154-1.767c-.087-1 .665-1.88 1.679-1.965a1.833 1.833 0 0 1 1.992 1.655l.235 2.7c.067.772-.2 1.542-.73 2.112a2.84 2.84 0 0 1-2.073.898h-7.286a2.84 2.84 0 0 1-2.072-.898 2.756 2.756 0 0 1-.73-2.112l.234-2.7c.086-1 .98-1.74 1.992-1.655 1.014.086 1.766.966 1.68 1.965l-.154 1.767h5.386zm-17.827-6.466c-1.716-1.125-2.7-2.738-2.7-4.428s.984-3.303 2.7-4.427c1.487-.974 3.368-1.511 5.297-1.511 4.15 0 7.278 2.553 7.278 5.938s-3.129 5.938-7.278 5.938c-1.93 0-3.81-.537-5.297-1.51zm19.749 22.401c-1.775.661-3.737.838-4.616.838-.88 0-2.841-.177-4.616-.838-3.627-1.35-4.168-3.787-4.168-5.12 0-2.211 2.308-4.575 8.784-4.575 6.476 0 8.784 2.364 8.784 4.576 0 1.332-.541 3.768-4.168 5.12zm10.518-22.401c-1.487.973-3.369 1.51-5.297 1.51-4.15 0-7.279-2.553-7.279-5.938s3.13-5.938 7.279-5.938c1.928 0 3.81.537 5.296 1.511 1.716 1.124 2.7 2.737 2.7 4.428 0 1.689-.984 3.302-2.7 4.427z"/>
        <path d="M22 47.307C22.17 49.333 25.747 50 27 50c1.253 0 4.83-.667 5-2.693-.357-.459-1.944-1.307-5-1.307s-4.643.848-5 1.307zM37.637 23C35.563 23 34 23.86 34 25c0 1.14 1.563 2 3.637 2C39.987 27 42 25.9 42 25c0-.9-2.014-2-4.363-2zM17.364 23C15.014 23 13 24.1 13 25c0 .9 2.014 2 4.364 2C19.437 27 21 26.14 21 25c0-1.14-1.563-2-3.636-2z"/>
    </g>
</svg>
