<svg id="svg" version="1.1" xmlns="http://www.w3.org/2000/svg" xmlns:xlink="http://www.w3.org/1999/xlink" width="400" height="400" viewBox="0, 0, 400,400"><g id="svgg"><path id="path0" d="M335.558 24.780 C 326.699 27.161,315.449 32.056,310.558 35.658 C 300.417 43.127,303.423 37.552,248.908 150.000 C 208.951 232.420,175.906 294.684,170.272 298.165 C 166.585 300.444,149.604 274.255,120.256 221.026 C 91.521 168.911,80.289 163.405,41.667 182.502 C 12.536 196.905,11.620 203.048,32.791 242.000 C 92.726 352.274,124.062 384.018,162.867 373.768 C 215.895 359.761,234.447 335.361,315.253 173.333 C 386.678 30.119,387.086 28.948,367.500 23.509 C 352.891 19.452,355.814 19.335,335.558 24.780 " stroke="none" fill="#000000" fill-rule="evenodd"></path></g></svg>