<svg xmlns="http://www.w3.org/2000/svg" width="33" height="22" viewBox="0 0 33 22">
    <g fill="#53555A" fill-rule="nonzero">
        <path stroke="#53555A" stroke-width=".3" d="M28.77 1H4.23C2.45 1 1 2.402 1 4.125v13.75C1 19.598 2.45 21 4.23 21h24.54c1.78 0 3.23-1.402 3.23-3.125V4.125C32 2.402 30.55 1 28.77 1zm1.938 16.875c0 1.034-.869 1.875-1.937 1.875H4.229c-1.068 0-1.937-.841-1.937-1.875V4.125c0-1.034.869-1.875 1.937-1.875h24.542c1.068 0 1.937.841 1.937 1.875v13.75z"/>
        <path stroke="#53555A" stroke-width=".3" d="M31.354 5H1.646A.636.636 0 0 0 1 5.625v3.75c0 .345.29.625.646.625h29.708c.357 0 .646-.28.646-.625v-3.75A.636.636 0 0 0 31.354 5zm-.646 3.75H2.292v-2.5h28.416v2.5z"/>
        <path d="M13.357 13H5.643C5.288 13 5 13.448 5 14s.288 1 .643 1h7.714c.355 0 .643-.448.643-1s-.288-1-.643-1zM13.357 16H5.643C5.288 16 5 16.448 5 17s.288 1 .643 1h7.714c.355 0 .643-.448.643-1s-.288-1-.643-1zM26.125 12h-1.25A1.877 1.877 0 0 0 23 13.875v1.25c0 1.034.841 1.875 1.875 1.875h1.25A1.877 1.877 0 0 0 28 15.125v-1.25A1.877 1.877 0 0 0 26.125 12zm.625 3.125c0 .345-.28.625-.625.625h-1.25a.625.625 0 0 1-.625-.625v-1.25c0-.345.28-.625.625-.625h1.25c.345 0 .625.28.625.625v1.25z"/>
    </g>
</svg>
