<svg xmlns="http://www.w3.org/2000/svg" width="69" height="62" viewBox="0 0 69 62">
    <g fill="#4FB79B" fill-rule="nonzero">
        <path d="M26.723 22.993A3.42 3.42 0 0 0 24.346 22c-1.814-.021-3.315 1.32-3.346 3.002-.01.542.456.989 1.04.998h.019c.576 0 1.047-.429 1.057-.965.011-.6.543-1.082 1.197-1.072.326.005.627.13.847.354.395.4 1.064.428 1.495.063a.932.932 0 0 0 .068-1.387zM31.927 26.622a2.65 2.65 0 0 0-1.503-1.457c-1.354-.509-2.865.198-3.366 1.576a.94.94 0 0 0 .54 1.2c.106.04.214.059.32.059a.919.919 0 0 0 .86-.61.781.781 0 1 1 1.46-.037.912.912 0 0 0 1.203.494.94.94 0 0 0 .486-1.225zM38.7 18.298a1.02 1.02 0 0 0-1.441.001l-.961.963A1.018 1.018 0 1 0 37.74 20.7l.961-.962a1.018 1.018 0 0 0-.001-1.441zM32.8 30h-1.6c-.663 0-1.2.448-1.2 1s.537 1 1.2 1h1.6c.663 0 1.2-.448 1.2-1s-.537-1-1.2-1zM42.8 30h-1.6c-.663 0-1.2.448-1.2 1s.537 1 1.2 1h1.6c.663 0 1.2-.448 1.2-1s-.537-1-1.2-1z"/>
        <path d="M68.968 48.968l-.264-1.425a1.917 1.917 0 0 0-2.233-1.54l-5.358.988 2.427-1.627a1.921 1.921 0 0 0 .603-2.537l-.734-1.305a1.926 1.926 0 0 0-1.176-.912 1.92 1.92 0 0 0-.744-.047c.27-1.496.41-3.024.41-4.579 0-.69-.414-1.283-1.005-1.547a7.794 7.794 0 0 0 .062-5.882 1.222 1.222 0 0 0-.686-.69 7.67 7.67 0 0 0-3.232-.54c-.14-2.83-2.475-5.089-5.325-5.089-.376 0-.742.04-1.095.115a8.375 8.375 0 0 0-.471-4.461 1.251 1.251 0 0 0-.699-.707 8.262 8.262 0 0 0-3.078-.593 8.234 8.234 0 0 0-4.43 1.284 10.03 10.03 0 0 0-2.38-3.82 1.702 1.702 0 0 0-1.215-.504c-.458 0-.89.179-1.214.505l-4.894 4.92a5.072 5.072 0 0 0-4.272-1.219 5.126 5.126 0 0 0-2.768 1.46 5.12 5.12 0 0 0-3.096-.436c-.231.04-.455.097-.673.166v-3.79c0-2.61-2.092-4.738-4.68-4.783v-2.15a1.69 1.69 0 0 0 1.397-1.663V1.69c0-.932-.755-1.69-1.684-1.69H8.24c-.929 0-1.684.758-1.684 1.69v4.87a1.69 1.69 0 0 0 1.397 1.663v2.15c-2.588.045-4.68 2.172-4.68 4.783V44.74C1.256 46.569 0 49.119 0 51.939 0 57.487 4.855 62 10.823 62l40.454-.012c1.381 0 2.68-.609 3.563-1.67a4.62 4.62 0 0 0 1.015-3.695l8.08 1.456a1.925 1.925 0 0 0 1.456-.328 1.93 1.93 0 0 0 .781-1.278L66.391 55a1.915 1.915 0 0 0-1.467-2.154l-2.848-.655 5.353-.986a1.905 1.905 0 0 0 1.233-.8c.29-.423.399-.933.306-1.437zM57.413 29.342c.608 0 1.206.097 1.782.287a5.756 5.756 0 0 1-.484 4.662H55.99l.868-.874a1.016 1.016 0 0 0-.001-1.433 1.008 1.008 0 0 0-1.43.001l-.46.462a4.705 4.705 0 0 0-1.086-1.871 5.641 5.641 0 0 1 3.533-1.234zm-5.7-5.078c1.825 0 3.31 1.493 3.31 3.33l-.002.1a7.675 7.675 0 0 0-2.885 1.717 4.628 4.628 0 0 0-.408-.136 4.7 4.7 0 0 0-2.794-3.486 3.303 3.303 0 0 1 2.779-1.525zm-5.343-5.647c.686 0 1.361.111 2.011.332a6.368 6.368 0 0 1-.25 4.681 5.383 5.383 0 0 0-1.295 1.8 4.714 4.714 0 0 0-2.688 1.044 5.364 5.364 0 0 0-.764-1.064l2.318-2.33a1.016 1.016 0 0 0-.002-1.433 1.009 1.009 0 0 0-1.43.002l-2.533 2.546a5.272 5.272 0 0 0-1.55-.462 6.34 6.34 0 0 1 1.727-3.26 6.245 6.245 0 0 1 4.456-1.856zm-7.745 15.674h-.876a1.01 1.01 0 0 0-1.88 0h-1.031c.24-.391.19-.91-.147-1.247a1.009 1.009 0 0 0-1.43.001l-.952.958a1.009 1.009 0 0 0-.2.288h-2.057a8.034 8.034 0 0 1-1.296-4.091H44.79a8.034 8.034 0 0 1-1.297 4.09h-2.14a1.01 1.01 0 0 0-.2-.288l-.953-.957a1.009 1.009 0 0 0-1.429-.002 1.015 1.015 0 0 0-.147 1.248zm-2.35-6.119a3.32 3.32 0 0 1 3.195-2.46 3.32 3.32 0 0 1 3.195 2.46h-6.39zm2.066-12.464a8.024 8.024 0 0 1 1.909 3.58 8.35 8.35 0 0 0-1.283 1.845 1.002 1.002 0 0 0-.526-.15h-1.347c-.558 0-1.01.454-1.01 1.014s.452 1.014 1.01 1.014h1.181c-.066.28-.118.563-.155.848a5.277 5.277 0 0 0-1.144.448 5.104 5.104 0 0 0-3.11-2.383l-.002-.009a5.142 5.142 0 0 0-.406-1.298l4.883-4.909zM20.07 24.855a3.093 3.093 0 0 1 2.91-4.124c.666 0 1.303.213 1.84.616a1.009 1.009 0 0 0 1.448-.252 3.06 3.06 0 0 1 2.044-1.342 3.068 3.068 0 0 1 3.605 3.034c0 .525.4.963.922 1.008 1.13.1 2.092.813 2.538 1.818a5.351 5.351 0 0 0-1.168 2.56h-5.764c-.717 0-1.332.443-1.588 1.071a7.64 7.64 0 0 0-4.33-1.333c-.98 0-1.942.185-2.857.55a1.22 1.22 0 0 0-.685.69 7.784 7.784 0 0 0-.471 1.801 3.071 3.071 0 0 1-.717-1.505 3.094 3.094 0 0 1 1.745-3.33c.475-.22.704-.768.528-1.262zm3.013 9.158l.276.278H20.93a5.76 5.76 0 0 1-.185-4.065 5.652 5.652 0 0 1 1.782-.288 5.654 5.654 0 0 1 4.436 2.133c.172.777.435 1.52.774 2.22h-1.523l-1.7-1.71a1.009 1.009 0 0 0-1.43-.001 1.016 1.016 0 0 0-.002 1.433zm-4.304.278h-3.604c.161-.982.75-1.82 1.568-2.313a5.085 5.085 0 0 0 1.843 1.532c.051.263.115.524.193.78zM8.579 2.027h7.545v4.195H8.578V2.027zm6.148 6.223v2.12H9.975V8.25h4.752zM5.296 19.267h6.563c.559 0 1.011-.454 1.011-1.014s-.452-1.014-1.01-1.014H5.295v-2.083c0-1.52 1.23-2.758 2.74-2.758h8.63a2.752 2.752 0 0 1 2.74 2.758v2.083H17.52c-.558 0-1.01.454-1.01 1.014s.452 1.014 1.01 1.014h1.888v.9a5.118 5.118 0 0 0-1.463 4.526l.002.01a5.129 5.129 0 0 0-2.069 5.434c-.505.28-.958.64-1.347 1.062H5.296V19.267zm0 13.96h8.06a5.331 5.331 0 0 0-.22 1.064h-.17c-.93 0-1.687.76-1.687 1.693 0 1.61.15 3.19.438 4.736-.29-.024-.588-.036-.89-.036-1.223 0-2.388.194-3.28.548-1.364.54-1.742 1.307-1.824 1.838-.145.072-.287.149-.427.227v-10.07zm12.799 12.452c.364.292.586.54.715.72h-.038c-.572 0-1.6-.232-2.768-.88a7.283 7.283 0 0 1-1.16-.79c-.377-.32-.93-.32-1.307 0a7.241 7.241 0 0 1-1.159.79c-1.169.648-2.197.88-2.769.88h-.037c.128-.18.35-.428.715-.72a1.016 1.016 0 0 0-.514-1.799c-.986-.116-1.61-.367-1.902-.55.366-.23 1.29-.619 2.955-.619 1.38 0 2.387.29 2.87.563.307.173.682.173.99 0 .483-.272 1.49-.563 2.87-.563 1.664 0 2.59.39 2.955.619-.292.183-.916.435-1.902.55a1.014 1.014 0 0 0-.514 1.798zm-2.022 12.338l.034.188c.12.65.374 1.248.728 1.768h-6.012c-4.853 0-8.802-3.604-8.802-8.034 0-3.027 1.845-5.668 4.561-7.037.312.234.701.435 1.163.597-.183.314-.31.65-.34 1.002-.04.468.102.912.401 1.25.395.448 1.002.675 1.803.675 1.068 0 2.47-.424 3.748-1.134.295-.164.573-.336.834-.516.26.18.539.352.833.516 1.28.71 2.68 1.134 3.748 1.134.802 0 1.408-.227 1.803-.674.3-.34.442-.783.402-1.25a2.406 2.406 0 0 0-.34-1.003c.461-.162.85-.364 1.162-.597 2.155 1.086 3.76 2.971 4.332 5.215l-7.149 2.724a4.637 4.637 0 0 0-2.91 5.176zm37.216 1.002a2.612 2.612 0 0 1-2.013.942h-1.06l-.663-3.589a1.01 1.01 0 1 0-1.988.37l.595 3.22-3.478.001-.448-2.427a1.011 1.011 0 1 0-1.988.37l.38 2.058-8.09.003-.608-3.296a1.01 1.01 0 1 0-1.988.37l.541 2.927-11.811.005h-.001a2.615 2.615 0 0 1-2.574-2.138l-.035-.188a2.61 2.61 0 0 1 1.64-2.91l3.972-1.514.296 1.602a1.012 1.012 0 0 0 1.178.812c.55-.102.912-.631.81-1.182l-.363-1.964 5.897-2.247c.521-.198.784-.784.586-1.307a1.01 1.01 0 0 0-1.304-.588l-2.744 1.046c-.77-2.734-2.747-5.017-5.37-6.325-.082-.53-.46-1.298-1.824-1.839-.892-.353-2.056-.547-3.279-.547-.84 0-1.644.093-2.353.262v-.612a1.012 1.012 0 0 0-1.636-.796 23.748 23.748 0 0 1-.263-3.22h32.921c.559 0 1.011-.454 1.011-1.014s-.452-1.014-1.01-1.014h-.414a10.059 10.059 0 0 0 1.007-4.395c0-.894-.682-1.63-1.552-1.714a2.661 2.661 0 0 1 1.844-.733 2.673 2.673 0 0 1 2.675 2.685c0 .525.401.962.923 1.008a2.682 2.682 0 0 1 2.403 2.216c.055.318.048.633-.007.933h-1.085c-.558 0-1.01.454-1.01 1.014s.452 1.014 1.01 1.014h7.856a23.43 23.43 0 0 1-.71 5.438l-5.477 3.243a4.623 4.623 0 0 0-2.186-2.764 4.628 4.628 0 0 0-3.923-.29l-11.282 4.299a1.015 1.015 0 0 0 .718 1.895l1.486-.566.462 2.499a1.012 1.012 0 0 0 1.178.812c.548-.102.911-.631.81-1.181l-.529-2.862 7.874-3a2.617 2.617 0 0 1 3.509 1.966l2.045 11.07a2.598 2.598 0 0 1-.561 2.142zm3.606-7.935a1.013 1.013 0 0 0-.044 1.985l7.526 1.731-.188 1.265-8.724-1.572-1.364-7.384L61.7 42.61l.633 1.124-6.41 4.297a1.015 1.015 0 0 0 .745 1.84l10.068-1.855.224 1.214-10.065 1.854z"/>
    </g>
</svg>
