<svg xmlns="http://www.w3.org/2000/svg" width="79" height="59" viewBox="0 0 79 59">
    <g fill="#4FB79B" fill-rule="nonzero">
        <path d="M78.732 27.554L66.344 9.1c-2.59-3.86-6.436-6.754-10.829-8.151a20.345 20.345 0 0 0-13.479.42L30.724 5.758a1.572 1.572 0 0 0-.89 2.02 1.537 1.537 0 0 0 1.993.903l11.312-4.389c7.588-2.943 16.082-.242 20.654 6.57l7.61 11.334-13.656-9.754a10.878 10.878 0 0 0-9.862-1.435L6.798 25.219c-1.43.495-3.002-.28-3.503-1.725-.642-1.85.27-3.85 2.077-4.55l14.137-5.485a1.572 1.572 0 0 0 .89-2.02 1.537 1.537 0 0 0-1.992-.903L4.269 16.021C.89 17.33-.817 21.07.383 24.532c1.061 3.058 4.385 4.696 7.411 3.649l41.087-14.212A7.82 7.82 0 0 1 55.971 15l20.598 14.715a1.524 1.524 0 0 0 1.97-.165c.532-.53.613-1.37.193-1.996z"/>
        <path d="M26.414 8.586A2.007 2.007 0 0 0 25 8c-.526 0-1.042.212-1.414.586A2.012 2.012 0 0 0 23 10c0 .526.214 1.042.586 1.414.372.372.888.586 1.414.586.526 0 1.042-.214 1.414-.586.372-.372.586-.888.586-1.414 0-.528-.214-1.042-.586-1.414zM66.912 42.811l-.059-.018a8.894 8.894 0 0 1-4.584-3.243 41.704 41.704 0 0 0 3.34-2.954 1.505 1.505 0 0 0 0-2.15 1.56 1.56 0 0 0-2.182 0A38.011 38.011 0 0 1 41.12 45.162c-1.52.18-3.062.273-4.617.273H36.5h-.002a39.24 39.24 0 0 1-4.784-.293A38.011 38.011 0 0 1 9.573 34.445a1.56 1.56 0 0 0-2.183 0 1.505 1.505 0 0 0 0 2.15 41.674 41.674 0 0 0 3.341 2.955 8.889 8.889 0 0 1-4.582 3.243l-.06.018a1.517 1.517 0 0 0-1.02 1.902A1.541 1.541 0 0 0 7 45.717l.062-.02a11.97 11.97 0 0 0 6.143-4.33c.528.359 1.063.705 1.606 1.037a8.223 8.223 0 0 1-4.857 5.127l-.478.187a1.513 1.513 0 0 0-.865 1.974c.24.597.82.96 1.434.96.19 0 .382-.035.569-.107l.478-.187c3.002-1.174 5.315-3.509 6.446-6.422.593.303 1.192.592 1.799.867-.177 2.607-1.707 4.935-4.082 6.156l-.092.047a1.51 1.51 0 0 0-.655 2.051c.275.52.812.818 1.37.818.24 0 .483-.055.711-.172l.093-.048c3.03-1.558 5.08-4.397 5.617-7.649a41.15 41.15 0 0 0 1.982.66 10.046 10.046 0 0 1-2.7 6.491c-.575.62-.533 1.58.096 2.148.296.268.67.4 1.042.4a1.55 1.55 0 0 0 1.138-.493c2-2.15 3.206-4.864 3.465-7.743.887.198 1.783.366 2.686.506a15.552 15.552 0 0 1-2.138 6.637l-.208.348a1.508 1.508 0 0 0 .55 2.082c.245.142.514.21.78.21.529 0 1.044-.27 1.332-.752l.207-.348a18.565 18.565 0 0 0 2.543-7.816c.625.05 1.253.087 1.884.11v9.033c0 .84.69 1.521 1.543 1.521.852 0 1.543-.681 1.543-1.52v-9.034a42.49 42.49 0 0 0 1.884-.11 18.564 18.564 0 0 0 2.543 7.816l.207.348c.288.483.803.751 1.332.751.266 0 .535-.067.78-.21.735-.425.981-1.357.55-2.08l-.208-.35a15.552 15.552 0 0 1-2.138-6.636c.903-.14 1.8-.308 2.686-.506a13.064 13.064 0 0 0 3.465 7.743c.305.327.72.493 1.138.493a1.55 1.55 0 0 0 1.042-.4c.629-.567.671-1.529.095-2.148a10.047 10.047 0 0 1-2.699-6.49 40.983 40.983 0 0 0 1.982-.66c.537 3.25 2.587 6.09 5.618 7.648l.092.048a1.555 1.555 0 0 0 2.081-.646 1.51 1.51 0 0 0-.655-2.05l-.091-.048c-2.376-1.221-3.906-3.549-4.083-6.156a40.769 40.769 0 0 0 1.799-.867c1.13 2.913 3.444 5.248 6.446 6.422l.478.187c.187.073.38.107.569.107.614 0 1.194-.364 1.434-.96a1.513 1.513 0 0 0-.865-1.974l-.478-.187a8.223 8.223 0 0 1-4.857-5.127 41.034 41.034 0 0 0 1.605-1.037 11.97 11.97 0 0 0 6.146 4.331l.06.019c.152.046.305.068.456.068.659 0 1.269-.42 1.474-1.073a1.516 1.516 0 0 0-1.019-1.901z"/>
    </g>
</svg>
