<svg xmlns="http://www.w3.org/2000/svg" width="44" height="39" viewBox="0 0 44 39">
    <path fill="#4FB79B" fill-rule="nonzero" d="M38.63 9.291V2.185c0-.782-.401-1.486-1.073-1.881a2.156 2.156 0 0 0-2.17-.022 50.498 50.498 0 0 1-21.124 6.366c-.057.005-6.821.034-6.821.034a3.33 3.33 0 0 0-3.297 2.94H2.756A2.765 2.765 0 0 0 0 12.39v6.078a2.765 2.765 0 0 0 2.756 2.767h1.389a3.34 3.34 0 0 0 1.958 2.656l4.94 13.685A2.163 2.163 0 0 0 13.069 39h4.958c.702 0 1.362-.345 1.766-.923.403-.578.5-1.318.26-1.98l-4.244-11.752a50.434 50.434 0 0 1 19.578 6.227c.335.188.701.282 1.067.282.38 0 .759-.101 1.102-.304a2.163 2.163 0 0 0 1.074-1.881v-7.106A6.19 6.19 0 0 0 44 15.427a6.19 6.19 0 0 0-5.37-6.136zm-34.51 9.81H2.757a.632.632 0 0 1-.63-.633V12.39c0-.35.283-.633.63-.633h1.365V19.1zm2.835 2.835a1.2 1.2 0 0 1-.708-1.094V10.015c0-.66.536-1.199 1.195-1.199h5.786v13.225l-5.862-.003a1.111 1.111 0 0 1-.411-.102zm11.1 14.889c.003.009.005.015-.004.028-.009.013-.016.013-.025.013H13.07a.03.03 0 0 1-.028-.019L8.466 24.175h5.02l4.569 12.65zm18.449-8.156c0 .015 0 .027-.023.04-.027.017-.044.008-.057 0a52.557 52.557 0 0 0-21.07-6.552V8.697a52.571 52.571 0 0 0 21.07-6.552c.014-.008.03-.017.057 0 .023.013.023.025.023.04V28.67zm2.126-9.266V11.45a4.058 4.058 0 0 1 0 7.952z"/>
</svg>
