<svg xmlns="http://www.w3.org/2000/svg" width="52" height="57" viewBox="0 0 52 57">
    <g fill="#4FB79B" fill-rule="nonzero">
        <path d="M4.5 32c-.828 0-1.5.373-1.5.833v3.334c0 .46.672.833 1.5.833s1.5-.373 1.5-.833v-3.334c0-.46-.672-.833-1.5-.833zM9.5 35c-.828 0-1.5.373-1.5.833v3.334c0 .46.672.833 1.5.833s1.5-.373 1.5-.833v-3.334c0-.46-.672-.833-1.5-.833z"/>
        <path d="M51.535 42.196c-.95-3.243-3.29-5.916-6.405-7.322v-21.35a.963.963 0 0 0-.482-.83L23.064.133a.994.994 0 0 0-.998 0L.482 12.694c-.02.01-.036.028-.055.042-.02.013-.038.029-.058.044a.958.958 0 0 0-.217.236c0 .006-.012.01-.016.017v.007a.956.956 0 0 0-.11.316c0 .029-.01.056-.012.085-.003.029-.014.055-.014.084v25.117c0 .342.183.658.482.832l21.584 12.558a.813.813 0 0 0 .079.033.781.781 0 0 0 .082.035.888.888 0 0 0 .675 0 .797.797 0 0 0 .084-.035c.025-.011.053-.018.078-.033l5.858-3.409c1.803 6.149 8.326 9.694 14.57 7.92 6.245-1.775 9.846-8.199 8.043-14.347zM22.565 2.088l5.102 2.968-7.565 4.402a.958.958 0 0 0-.345 1.324.99.99 0 0 0 1.344.34l8.495-4.94 5.102 2.97-19.655 11.433-5.102-2.969 8.219-4.782a.958.958 0 0 0 .346-1.324.99.99 0 0 0-1.345-.34l-9.148 5.323-5.103-2.968L22.565 2.088zm-8.503 20.17v6.451l-5.068-2.95v-6.45l5.068 2.95zm14.777 20.16a11.382 11.382 0 0 0-.388 2.986c0 .405.022.809.065 1.21l-4.97 2.894V46.37a.974.974 0 0 0-.981-.966.974.974 0 0 0-.981.966v3.138L1.962 38.091V15.218l5.07 2.95v8.142c0 .342.182.66.481.833l7.03 4.091a1 1 0 0 0 .5.135.974.974 0 0 0 .981-.966V23.4l5.56 3.235v15.871c0 .534.44.966.98.966a.974.974 0 0 0 .982-.966V26.635l17.781-10.346a.958.958 0 0 0 .346-1.324.99.99 0 0 0-1.345-.34L22.565 24.962l-5.592-3.255L36.628 10.27l6.54 3.805v20.123c-6.262-1.626-12.677 2.054-14.329 8.22zm11.385 12.647c-5.418 0-9.81-4.325-9.81-9.66 0-5.336 4.392-9.661 9.81-9.661 5.419 0 9.811 4.325 9.811 9.66-.006 5.333-4.395 9.655-9.81 9.66z"/>
        <path d="M43.694 43.216c-.389-.288-1.005-.288-1.394 0l-3.805 2.924-.795-.611c-.398-.296-1.033-.288-1.418.018-.376.299-.376.773 0 1.071l1.504 1.156c.392.301 1.027.301 1.419 0l4.513-3.468c.385-.306.374-.794-.024-1.09z"/>
    </g>
</svg>
