<svg xmlns="http://www.w3.org/2000/svg" width="50" height="26" viewBox="0 0 50 26">
    <g fill="#53555A" fill-rule="nonzero">
        <path d="M46.804 12.693c-.404-.663-1.3-.89-2-.507l-4.072 2.227c-.7.383-.94 1.23-.536 1.894a1.48 1.48 0 0 0 1.27.693c.247 0 .5-.06.73-.186l4.072-2.227c.7-.383.94-1.23.536-1.894zM37.168 3.196c-.796-.404-1.813-.164-2.272.536l-2.673 4.073c-.46.7-.187 1.595.61 1.999.261.133.547.196.83.196.574 0 1.133-.263 1.441-.732l2.673-4.073c.46-.7.187-1.595-.609-1.999zM25.5 0c-.828 0-1.5.687-1.5 1.535v4.93C24 7.313 24.672 8 25.5 8S27 7.313 27 6.465v-4.93C27 .687 26.328 0 25.5 0zM17.777 7.805l-2.673-4.073c-.46-.7-1.476-.94-2.272-.536-.796.405-1.068 1.3-.609 2l2.673 4.072c.308.47.867.732 1.442.732.282 0 .568-.063.83-.196.796-.404 1.068-1.3.609-2zM9.268 14.413l-4.073-2.227c-.7-.383-1.595-.156-1.999.507-.404.663-.164 1.511.536 1.894l4.073 2.227c.23.126.482.186.73.186a1.48 1.48 0 0 0 1.269-.693c.404-.663.164-1.511-.536-1.894zM48.535 23.152H35.78C35.062 17.992 30.502 14 25 14s-10.062 3.991-10.78 9.152H1.465c-.81 0-1.465.637-1.465 1.424C0 25.362.656 26 1.465 26h47.07c.81 0 1.465-.638 1.465-1.424 0-.787-.656-1.424-1.465-1.424z"/>
    </g>
</svg>
