<svg xmlns="http://www.w3.org/2000/svg" width="71" height="71" viewBox="0 0 71 71">
    <path fill="#4FB79B" fill-rule="nonzero" d="M62.346 16.887a1.332 1.332 0 0 0 1.088-.382L70.61 9.33a1.33 1.33 0 0 0-.82-2.267l-5.366-.487-.488-5.366A1.33 1.33 0 0 0 61.67.39l-7.176 7.176a1.33 1.33 0 0 0-.382 1.088l.636 5.716-1.344 1.344C48.44 11.174 41.932 8.3 34.769 7.982V5.455a1.33 1.33 0 0 0-2.662 0V7.98c-15.271.68-27.57 12.979-28.25 28.25H1.331a1.33 1.33 0 0 0 0 2.662h2.526c.68 15.271 12.979 27.57 28.25 28.25v2.526a1.33 1.33 0 0 0 2.662 0v-2.526c15.271-.68 27.57-12.979 28.25-28.25h2.526a1.33 1.33 0 0 0 0-2.662H63.02c-.319-7.163-3.193-13.672-7.733-18.635l1.344-1.344 5.716.635zm-.803-12.606l.33 3.64a1.33 1.33 0 0 0 1.206 1.205l3.64.331-4.714 4.714-4.659-.517-.517-4.659 4.714-4.714zm-1.188 31.95H58.48a1.33 1.33 0 0 0 0 2.662h1.875c-.675 13.803-11.782 24.911-25.586 25.586v-1.875a1.33 1.33 0 0 0-2.662 0v1.875C18.304 63.805 7.196 52.696 6.521 38.893h1.875a1.33 1.33 0 0 0 0-2.662H6.521c.675-13.803 11.783-24.912 25.586-25.586v1.875a1.33 1.33 0 0 0 2.662 0v-1.875c6.43.314 12.274 2.892 16.752 6.952L47.517 21.6a21.204 21.204 0 0 0-14.08-5.333c-11.74 0-21.293 9.552-21.293 21.294s9.552 21.294 21.294 21.294c11.741 0 21.294-9.552 21.294-21.294a21.207 21.207 0 0 0-5.333-14.079l4.004-4.005c4.06 4.479 6.638 10.323 6.952 16.753zm-27.858 2.272a1.327 1.327 0 0 0 1.882 0l7.228-7.228a10.26 10.26 0 0 1 2.145 6.287c0 5.687-4.627 10.314-10.314 10.314-5.688 0-10.314-4.627-10.314-10.314s4.626-10.314 10.314-10.314c2.365 0 4.545.802 6.286 2.145l-7.227 7.228c-.52.52-.52 1.362 0 1.882zm.941-13.917c-7.155 0-12.976 5.821-12.976 12.976 0 7.155 5.821 12.976 12.976 12.976 7.155 0 12.976-5.82 12.976-12.976 0-3.099-1.093-5.947-2.913-8.18l4.014-4.014a18.553 18.553 0 0 1 4.555 12.194c0 10.274-8.358 18.632-18.632 18.632-10.274 0-18.632-8.358-18.632-18.632 0-10.274 8.358-18.632 18.632-18.632 4.66 0 8.924 1.719 12.195 4.555L41.619 27.5a12.914 12.914 0 0 0-8.18-2.913z"/>
</svg>
