<svg xmlns="http://www.w3.org/2000/svg" width="28" height="28" viewBox="0 0 28 28">
    <path fill="#53555A" fill-rule="nonzero" d="M23.9 18.1a13.946 13.946 0 0 0-5.32-3.336 8.09 8.09 0 0 0 3.514-6.67C22.094 3.63 18.463 0 14 0 9.537 0 5.906 3.63 5.906 8.094a8.09 8.09 0 0 0 3.515 6.67A13.946 13.946 0 0 0 4.1 18.1 13.909 13.909 0 0 0 0 28h2.188c0-6.513 5.299-11.813 11.812-11.813 6.513 0 11.813 5.3 11.813 11.813H28c0-3.74-1.456-7.255-4.1-9.9zM14 14a5.913 5.913 0 0 1-5.906-5.906A5.913 5.913 0 0 1 14 2.188a5.913 5.913 0 0 1 5.906 5.906A5.913 5.913 0 0 1 14 14z"/>
</svg>
