<?xml version="1.0" encoding="utf-8"?>
<!-- Generator: Adobe Illustrator 22.0.1, SVG Export Plug-In . SVG Version: 6.00 Build 0)  -->
<svg version="1.1" xmlns="http://www.w3.org/2000/svg" x="0px" y="0px" viewBox="0 0 66.1 65.1" xml:space="preserve">
<path d="M39.2,31.4C39.2,31.4,39.2,31.4,39.2,31.4c-0.7,0-1.1-0.4-1.2-1c0-0.5-0.1-0.9-0.2-1.3
	c-0.2-0.9-0.7-1.7-1.4-2.2c-0.3-0.3-0.7-0.4-1.1-0.6c-0.5-0.1-1.1-0.1-1.6-0.2c-0.6-0.1-0.9-0.6-0.8-1.1c0.1-0.5,0.6-0.9,1.1-0.8
	c3.3,0.2,5.6,1.9,5.9,5.8c0,0.3,0,0.6,0,0.8C39.9,31.2,39.6,31.4,39.2,31.4C39.3,31.4,39.3,31.4,39.2,31.4z M46.9,43.6
	c-0.9-0.8-1.9-1.5-2.9-2.2c-1-0.7-2-1.5-3.1-2.1c-1.1-0.7-2.3-0.7-3.3,0.1c-1,0.8-1.5,2.4-2.9,2.6c-0.9,0.1-1.6-0.3-2.4-0.6
	c-4.6-1.9-7.5-5.5-9.2-10.1c-0.2-0.6-0.2-1.2,0.1-1.8c0.2-0.3,0.4-0.5,0.7-0.7c0.3-0.3,0.6-0.5,0.9-0.7c1.4-0.9,1.6-2.6,0.8-4
	c-1.2-2.2-2.7-4.2-4.4-6.1c-0.8-0.9-1.8-1.2-2.8-0.7c-1.3,0.6-2.6,1.5-3.5,2.6c-1,1.2-2,2.9-1.3,4.5c0.7,1.8,1.4,3.5,2.3,5.2
	c1.8,3.6,3.9,7,6.5,10c4.7,5.3,10.7,8.7,17.1,11.4c0.6,0.3,1.3,0.4,2,0.6c0.6-0.2,1.3-0.3,1.8-0.6c1.9-1,3.2-2.7,4.2-4.6
	C48,45.4,47.7,44.4,46.9,43.6z M42.5,31.5c0,0.3,0,0.6,0.1,0.8c0.3,0.9,1.6,0.8,1.8-0.1c0.1-0.2,0.1-0.5,0.1-0.6
	c0-0.6-0.1-1-0.1-1.5c0-0.2-0.1-0.3-0.1-0.5c-0.6-3.9-2.6-6.8-6.1-8.7c-1.7-0.9-3.6-1.3-5.5-1.4c-0.6,0-1,0.4-1,0.9
	c0,0.6,0.3,0.9,0.9,1c0.5,0,1,0.1,1.5,0.2c1.1,0.2,2.2,0.5,3.2,1c1.7,0.8,3.1,2.1,4,3.7C42.1,27.9,42.5,29.7,42.5,31.5z M48.5,29.2
	C47,20.9,40.1,15.3,31.7,15c0,0,0,0-0.1,0c-0.2,0-0.3,0-0.5,0c-0.6,0-1.1,0.5-1,1.2c0.1,0.8,0.9,0.8,1.5,0.9c1,0.1,1.9,0.2,2.9,0.3
	c6.2,1.1,11.3,6.3,12.1,12.6c0.2,1.2,0.2,2.4,0.3,3.6c0,0.6,0.3,1.2,1,1.2c0.7,0,1-0.6,0.9-1.2C48.8,32.1,48.7,30.6,48.5,29.2z
	 M63.8,32.4c0,17.3-14.1,31.4-31.4,31.4c-4.9,0-9.6-1.2-13.8-3.2l-7.4,4c-2.1,1.2-4.6-0.9-3.9-3.2L9.6,54C4.3,48.4,1,40.8,1,32.4
	C1,15.1,15.1,1,32.4,1C49.7,1,63.8,15.1,63.8,32.4z M60.8,32.4C60.8,16.7,48.1,4,32.4,4C16.7,4,4,16.7,4,32.4c0,7.9,3.2,15,8.4,20.2
	l-1,3.2c0,0,0,0,0,0l-1.8,6c-0.2,0.5,0.4,1,0.9,0.7l8.4-4.3c0,0,0,0,0,0l0.8-0.4c3.8,1.9,8.2,3,12.7,3
	C48.1,60.8,60.8,48.1,60.8,32.4z"/>
</svg>
