<svg xmlns="http://www.w3.org/2000/svg" width="25" height="15" viewBox="0 0 25 15">
    <path fill="#FF8A8A" fill-rule="evenodd" d="M12.22 14.921h1.493s.452-.049.685-.31c.218-.246.202-.689.202-.689s-.03-2.112.903-2.423c.918-.311 2.101 2.047 3.346 2.947.95.688 1.665.54 1.665.54l3.346-.048s1.743-.115.918-1.556c-.062-.115-.482-1.064-2.49-3.03-2.1-2.046-1.82-1.719.716-5.255 1.54-2.162 2.148-3.472 1.961-4.045-.187-.54-1.307-.393-1.307-.393l-3.766.033s-.28-.033-.483.098c-.202.131-.327.426-.327.426s-.591 1.67-1.385 3.095c-1.68 2.996-2.35 3.16-2.614 2.963-.638-.425-.483-1.735-.483-2.669 0-2.898.42-4.11-.809-4.42-.405-.099-.716-.18-1.758-.18-1.339-.017-2.475 0-3.129.343-.435.213-.762.72-.56.737.25.033.81.164 1.105.59.39.556.374 1.784.374 1.784s.217 3.422-.514 3.848c-.514.295-1.198-.311-2.692-3.03-.763-1.39-1.339-2.93-1.339-2.93s-.109-.295-.311-.442c-.233-.18-.576-.246-.576-.246L.811.676S.268.692.082.938c-.172.212-.016.67-.016.67S2.866 8.503 6.04 11.975c2.879 3.16 6.178 2.947 6.178 2.947z"/>
</svg>
