<svg xmlns="http://www.w3.org/2000/svg" width="58" height="34" viewBox="0 0 58 34">
    <g fill="#4FB79B" fill-rule="nonzero">
        <path d="M56.862 9.971c.629 0 1.138-.508 1.138-1.135v-7.7C58 .507 57.49 0 56.862 0H1.138C.509 0 0 .508 0 1.135v7.7c0 .628.51 1.136 1.138 1.136C5.02 9.971 8.18 13.124 8.18 17s-3.16 7.029-7.043 7.029c-.629 0-1.138.508-1.138 1.135v7.7C0 33.493.51 34 1.138 34h10.115a1.136 1.136 0 1 0 0-2.27H2.275v-5.5c4.604-.561 8.18-4.487 8.18-9.23S6.88 8.331 2.276 7.77v-5.5H41.35v2.271c0 .627.51 1.136 1.138 1.136.628 0 1.137-.509 1.137-1.136v-2.27h12.1v5.498c-4.604.562-8.18 4.488-8.18 9.231 0 4.743 3.576 8.669 8.18 9.23v5.5h-12.1v-2.272c0-.627-.51-1.135-1.137-1.135-.629 0-1.138.508-1.138 1.135v2.271H20.595a1.136 1.136 0 1 0 0 2.271h36.267c.629 0 1.138-.508 1.138-1.135v-7.7c0-.628-.51-1.136-1.138-1.136-3.883 0-7.043-3.153-7.043-7.029s3.16-7.029 7.043-7.029z"/>
        <path d="M43 22c.552 0 1-.48 1-1.073v-7.854c0-.592-.448-1.073-1-1.073s-1 .48-1 1.073v7.854c0 .592.448 1.073 1 1.073zM23.828 14.83A3.977 3.977 0 0 0 25 12a3.977 3.977 0 0 0-1.172-2.83 4.003 4.003 0 0 0-5.656 0A3.977 3.977 0 0 0 17 12c0 1.069.416 2.074 1.172 2.83.78.78 1.804 1.17 2.828 1.17 1.024 0 2.049-.39 2.828-1.17zM19 12c0-.535.208-1.037.586-1.415.39-.39.902-.585 1.414-.585.512 0 1.024.195 1.414.585.378.378.586.88.586 1.415a2 2 0 0 1-4 0zM29.17 20.17a4.006 4.006 0 0 0 0 5.66c.78.78 1.805 1.17 2.83 1.17a3.99 3.99 0 0 0 2.83-1.17 4.006 4.006 0 0 0 0-5.66 4.007 4.007 0 0 0-5.66 0zm4.245 1.415c.78.78.78 2.05 0 2.83-.78.78-2.05.78-2.83 0A2.002 2.002 0 0 1 32 21c.512 0 1.025.195 1.415.585zM20.922 23.675l11.748-11.75a1.129 1.129 0 0 0-1.595-1.595L19.327 22.08a1.139 1.139 0 0 0-.067 1.522c.42.5 1.2.535 1.662.073zM16 32c-.418 0-.8.27-.942.662a1.01 1.01 0 0 0 .304 1.11 1.01 1.01 0 0 0 1.146.09c.36-.21.554-.64.474-1.049A1.012 1.012 0 0 0 16 32z"/>
    </g>
</svg>
