<svg xmlns="http://www.w3.org/2000/svg" width="65" height="65" viewBox="0 0 65 65">
    <g fill="#4FB79B" fill-rule="nonzero">
        <path d="M47.707 27.293a1 1 0 1 0-1.415 1.414 1 1 0 0 0 1.415-1.414z"/>
        <path d="M63.884 8.299L56.7 1.116a3.806 3.806 0 0 0-5.386 0L49.012 3.42a3.797 3.797 0 0 0-1.021 3.537L37.578 8.794a11.37 11.37 0 0 0-6.092 3.174l-2.226 2.225a6.343 6.343 0 0 0-1.793 5.386 6.322 6.322 0 0 0-5.388 1.796 6.321 6.321 0 0 0-1.797 5.387 6.323 6.323 0 0 0-5.386 1.795 6.323 6.323 0 0 0-1.795 5.39 6.343 6.343 0 0 0-5.387 1.793l-5.116 5.114c-3.464 3.465-3.464 9.103 0 12.57l8.978 8.978c3.466 3.464 9.105 3.465 12.57 0l5.114-5.116a6.342 6.342 0 0 0 1.793-5.388 6.325 6.325 0 0 0 5.39-1.794 6.342 6.342 0 0 0 1.792-5.387 6.32 6.32 0 0 0 5.39-1.796 6.342 6.342 0 0 0 1.792-5.386 6.323 6.323 0 0 0 5.39-1.795l2.224-2.225a11.371 11.371 0 0 0 3.174-6.094l1.838-10.412a3.797 3.797 0 0 0 3.537-1.02l2.303-2.304a3.806 3.806 0 0 0 0-5.386zM27.464 55.49l-5.114 5.116a6.357 6.357 0 0 1-8.978 0l-8.978-8.978a6.357 6.357 0 0 1 0-8.978l5.116-5.115a3.813 3.813 0 0 1 5.386 0l12.569 12.568a3.813 3.813 0 0 1 0 5.387zm7.183-7.182a3.809 3.809 0 0 1-5.387 0L16.692 35.74a3.809 3.809 0 1 1 5.386-5.388v.001l12.568 12.568a3.814 3.814 0 0 1 0 5.387zm7.182-7.182a3.806 3.806 0 0 1-5.387 0L23.874 28.557a3.805 3.805 0 0 1 0-5.387 3.804 3.804 0 0 1 5.386 0l12.57 12.57a3.812 3.812 0 0 1-.001 5.386zM53.705 26.98a8.844 8.844 0 0 1-2.47 4.74l-2.223 2.225a3.813 3.813 0 0 1-5.387 0l-12.57-12.57a3.813 3.813 0 0 1 0-5.386l2.226-2.225a8.844 8.844 0 0 1 4.739-2.468l11.459-2.022 6.248 6.248-2.022 11.458zm8.383-15.09l-2.303 2.304a1.268 1.268 0 0 1-1.795 0L50.807 7.01a1.268 1.268 0 0 1 0-1.795l2.304-2.303a1.268 1.268 0 0 1 1.795 0l7.182 7.182a1.268 1.268 0 0 1 0 1.796zM64.177 47.852l-5.565-11.155A1.246 1.246 0 0 0 57.5 36c-.47 0-.899.27-1.112.697L50.823 47.85C48.293 52.914 51.898 59 57.5 59c5.601 0 9.206-6.085 6.677-11.148zM57.5 56.444c-3.738 0-6.136-4.062-4.453-7.43l4.453-8.926 4.453 8.926c1.68 3.365-.711 7.43-4.453 7.43z"/>
        <path d="M44.614 24.75l-6.364-6.364a1.318 1.318 0 0 0-1.864 1.864l6.364 6.364a1.318 1.318 0 0 0 1.864-1.864z"/>
    </g>
</svg>
