<?xml version="1.0" encoding="utf-8"?>
<!-- Generator: Adobe Illustrator 22.0.1, SVG Export Plug-In . SVG Version: 6.00 Build 0)  -->
<svg version="1.1" xmlns="http://www.w3.org/2000/svg" x="0px" y="0px" viewBox="0 0 64 64" xml:space="preserve">
<path d="M48.9,40.3c-0.9-0.8-1.9-1.5-2.9-2.2c-1-0.7-2-1.5-3.1-2.1c-1.1-0.7-2.3-0.7-3.3,0.1c-1,0.8-1.5,2.4-2.9,2.6
	c-0.9,0.1-1.6-0.3-2.4-0.6c-4.6-1.9-7.5-5.5-9.2-10.1c-0.2-0.6-0.2-1.2,0.1-1.8c0.2-0.3,0.4-0.5,0.7-0.7c0.3-0.3,0.6-0.5,0.9-0.7
	c1.4-0.9,1.6-2.6,0.8-4c-1.2-2.2-2.7-4.2-4.4-6.1c-0.8-0.9-1.8-1.2-2.8-0.7c-1.3,0.6-2.6,1.5-3.5,2.6c-1,1.2-2,2.9-1.3,4.5
	c0.7,1.8,1.4,3.5,2.3,5.2c1.8,3.6,3.9,7,6.5,10c4.7,5.3,10.7,8.7,17.1,11.4c0.6,0.3,1.3,0.4,2,0.6c0.6-0.2,1.3-0.3,1.8-0.6
	c1.9-1,3.2-2.7,4.2-4.6C50,42,49.7,41,48.9,40.3z M32,0C14.7,0,0.6,14.1,0.6,31.4c0,8.4,3.3,16,8.7,21.6l-2.3,7.4
	c-0.7,2.3,1.7,4.3,3.9,3.2l7.4-4c4.2,2,8.8,3.2,13.8,3.2c17.3,0,31.4-14.1,31.4-31.4C63.4,14.1,49.3,0,32,0z M32,59.8
	c-4.6,0-8.9-1.1-12.7-3l-0.8,0.4c0,0,0,0,0,0l-8.4,4.3c-0.5,0.3-1.1-0.2-0.9-0.7l1.8-6c0,0,0,0,0,0l1-3.2
	c-5.2-5.1-8.4-12.3-8.4-20.2C3.6,15.7,16.3,3,32,3c15.7,0,28.4,12.7,28.4,28.4C60.4,47.1,47.7,59.8,32,59.8z"/>
</svg>
