<svg xmlns="http://www.w3.org/2000/svg" width="28" height="65" viewBox="0 0 28 65">
    <g fill="none" fill-rule="nonzero">
        <path fill="#E6E9ED" d="M22 3v13h-3v-2.99h-1V5h-8v8.01H9V16H6V3c0-1.101.899-2 2-2h12a2 2 0 0 1 2 2z"/>
        <path fill="#CCD1D9" d="M20.001 1H18c1.108 0 1.999.899 1.999 2v13H22V3a2 2 0 0 0-1.999-2z"/>
        <path fill="#434A54" d="M18 12.99V13h-8V5h8z"/>
        <path fill="#545C66" d="M19 13v3H9v-3z"/>
        <path fill="#656D78" d="M22 16v4H6v-4z"/>
        <path fill="#545C66" d="M20.002 16H20v4h2v-4z"/>
        <path fill="#F5F7FA" d="M19 35c1.1 0 2 .899 2 2 0 1.1-.9 2-2 2H9c-1.101 0-2-.9-2-2 0-1.101.899-2 2-2h10z"/>
        <path fill="#EAC6BB" d="M5.998 20.01h16.004V20C24.761 20 27 22.29 27 25.114v34.795C27 62.169 25.21 64 23.002 64H4.998C2.79 64 1 62.17 1 59.909V25.114C1 22.29 3.24 20 5.998 20v.01zm14.994 16.364c0-1.126-.9-2.045-2-2.045H8.998c-1.1 0-2 .92-2 2.045 0 1.126.9 2.046 2 2.046h9.996c1.1 0 2-.92 2-2.046z"/>
        <path fill="#D3B1A9" d="M21.931 20v.01H20c2.752.054 4.97 2.315 4.97 5.104v34.795c0 2.26-1.814 4.091-4.054 4.091h2.03C25.185 64 27 62.17 27 59.909V25.114C27 22.29 24.729 20 21.931 20zM6.048 20.005v-.01c-.032 0-.063.009-.096.01h.096z"/>
        <path fill="#000" d="M5 65c-2.757 0-5-2.243-5-5a1 1 0 1 1 2 0c0 1.654 1.346 3 3 3a.999.999 0 1 1 0 2zM23 65a1 1 0 1 1 0-2c1.654 0 3-1.346 3-3a.999.999 0 1 1 2 0c0 2.757-2.243 5-5 5z"/>
        <path fill="#000" d="M23 65H5a1 1 0 1 1 0-2h18a.999.999 0 1 1 0 2zM1 61c-.553 0-1-.46-1-1.027V25.027C0 24.46.447 24 1 24c.553 0 1 .459 1 1.027v34.945C2 60.54 1.553 61 1 61zM27 61c-.553 0-1-.46-1-1.027V25.027c0-.568.447-1.027 1-1.027.553 0 1 .46 1 1.027v34.945C28 60.54 27.553 61 27 61z"/>
        <path fill="#000" d="M1 26a1 1 0 0 1-1-1c0-3.31 2.69-6 6-6a.999.999 0 1 1 0 2c-2.206 0-4 1.794-4 4a1 1 0 0 1-1 1zM6 4a1 1 0 0 1-1-1c0-1.654 1.346-3 3-3a.999.999 0 1 1 0 2 1 1 0 0 0-1 1c0 .553-.447 1-1 1zM27 26c-.553 0-1-.447-1-1 0-2.206-1.794-4-4-4a.999.999 0 1 1 0-2c3.31 0 6 2.691 6 6a1 1 0 0 1-1 1z"/>
        <path fill="#000" d="M22 21H6a1 1 0 1 1 0-2h16a.999.999 0 1 1 0 2z"/>
        <path fill="#000" d="M6 21a1 1 0 0 1-1-1v-4a1 1 0 1 1 2 0v4a1 1 0 0 1-1 1z"/>
        <path fill="#000" d="M22 17H6a1 1 0 1 1 0-2h16a1 1 0 1 1 0 2z"/>
        <path fill="#000" d="M22 21a1 1 0 0 1-1-1v-4a1 1 0 1 1 2 0v4a1 1 0 0 1-1 1zM6 17a1 1 0 0 1-1-1V3a1 1 0 1 1 2 0v13a1 1 0 0 1-1 1zM22 4a1 1 0 0 1-1-1 1 1 0 0 0-1-1 1 1 0 1 1 0-2c1.654 0 3 1.346 3 3 0 .553-.447 1-1 1z"/>
        <path fill="#000" d="M22 17a1 1 0 0 1-1-1V3a1 1 0 1 1 2 0v13a1 1 0 0 1-1 1zM20 2H8a1 1 0 1 1 0-2h12a.999.999 0 1 1 0 2zM9 17a1 1 0 0 1-1-1v-3a1 1 0 1 1 2 0v3a1 1 0 0 1-1 1z"/>
        <path fill="#000" d="M19 15H9a1 1 0 1 1 0-2h10a1 1 0 1 1 0 2z"/>
        <path fill="#000" d="M19 17a1 1 0 0 1-1-1v-3a1 1 0 1 1 2 0v3a1 1 0 0 1-1 1zM10 14a1 1 0 0 1-1-1V5a1 1 0 1 1 2 0v8a1 1 0 0 1-1 1z"/>
        <path fill="#000" d="M18 6h-8a1 1 0 1 1 0-2h8a.999.999 0 1 1 0 2z"/>
        <path fill="#000" d="M18 14a1 1 0 0 1-1-1V5a1 1 0 1 1 2 0v8a1 1 0 0 1-1 1zM14.003 10A1.002 1.002 0 0 1 13 9c0-.553.441-1 .991-1h.012c.55 0 .997.447.997 1 0 .553-.447 1-.997 1zM9 40c-1.654 0-3-1.346-3-3s1.346-3 3-3a.999.999 0 1 1 0 2 1 1 0 0 0 0 2 .999.999 0 1 1 0 2zM19 40a1 1 0 1 1 0-2 1 1 0 0 0 0-2 1 1 0 1 1 0-2c1.654 0 3 1.346 3 3s-1.346 3-3 3z"/>
        <path fill="#000" d="M19 36H9a1 1 0 1 1 0-2h10a.999.999 0 1 1 0 2zM19 39H9a1 1 0 1 1 0-2h10a.999.999 0 1 1 0 2zM19 44H9a1 1 0 1 1 0-2h10a1 1 0 1 1 0 2zM19 47H9a1 1 0 1 1 0-2h10a1 1 0 1 1 0 2zM17 51h-6a.999.999 0 1 1 0-2h6a.999.999 0 1 1 0 2z"/>
    </g>
</svg>
