<svg xmlns="http://www.w3.org/2000/svg" width="58" height="58" viewBox="0 0 58 58">
    <path fill="#FF8A8A" fill-rule="nonzero" d="M41.82 19.798c.884.885.884 2.32 0 3.204l-15.2 15.2a2.266 2.266 0 0 1-3.204 0l-7.235-7.236a2.265 2.265 0 1 1 3.203-3.204l5.634 5.634 13.597-13.598a2.266 2.266 0 0 1 3.204 0zM58 29c0 16.03-12.972 29-29 29C12.97 58 0 45.028 0 29 0 12.97 12.972 0 29 0c16.03 0 29 12.972 29 29zm-4.531 0C53.469 15.475 42.523 4.531 29 4.531 15.475 4.531 4.531 15.477 4.531 29c0 13.525 10.946 24.469 24.469 24.469 13.525 0 24.469-10.946 24.469-24.469z"/>
</svg>
