<svg xmlns="http://www.w3.org/2000/svg" width="89" height="64" viewBox="0 0 89 64">
    <g fill="#4FB79B" fill-rule="nonzero" stroke="#FFF" stroke-width="2">
        <path d="M79.103 53.992c-4.77 4.825-10.82 7.848-17.492 8.744a30.38 30.38 0 0 1-17.616-2.97C32.783 64.905 19.1 62.822 9.896 53.513c-11.861-11.997-11.861-31.517 0-43.514A30.155 30.155 0 0 1 31.41 1c4.663 0 9.324 1.075 13.588 3.224a29.902 29.902 0 0 1 12.548-2.762c1.528 0 3.065.116 4.601.35 6.461.984 12.325 3.981 16.958 8.666 11.862 11.997 11.862 31.517-.001 43.514zM13.502 13.644c-9.873 9.987-9.873 26.235 0 36.221a25.098 25.098 0 0 0 17.907 7.49c6.485 0 12.97-2.497 17.907-7.49 4.783-4.837 7.418-11.269 7.418-18.11 0-6.842-2.635-13.273-7.418-18.11-9.874-9.986-25.94-9.986-35.814 0zm61.995.481c-6.683-6.76-16.34-9.113-25.143-6.445a30.555 30.555 0 0 1 2.568 2.318c5.746 5.811 8.91 13.539 8.91 21.757 0 8.219-3.164 15.945-8.91 21.757a30.592 30.592 0 0 1-3.435 2.992c8.972 3.047 19.15.781 26.01-6.158 9.874-9.987 9.874-26.235 0-36.22z"/>
        <path d="M36.98 49.132c.177 1.331-.84 2.543-2.274 2.707-.93.107-1.879.161-2.818.161h-.005a24.73 24.73 0 0 1-2.56-.133c-1.434-.149-2.467-1.35-2.307-2.683.162-1.333 1.456-2.293 2.888-2.143.656.067 1.321.102 1.979.102h.004c.727 0 1.46-.042 2.18-.124 1.43-.165 2.737.782 2.913 2.113zM19.813 41.54c.44.51.92.997 1.423 1.45 1.003.903 1.02 2.385.038 3.307-.982.923-2.591.94-3.595.035a21.325 21.325 0 0 1-1.841-1.875l-.003-.003a20.64 20.64 0 0 1-1.444-1.87c-.748-1.094-.39-2.538.797-3.225 1.189-.688 2.76-.358 3.506.734.342.498.717.985 1.117 1.445 0 .001 0 .002.002.003zM16.334 28.442v.004c-.155.716-.27 1.45-.34 2.178-.14 1.452-1.369 2.51-2.744 2.362-1.376-.148-2.377-1.445-2.237-2.898.091-.943.239-1.892.44-2.818v-.005c.182-.84.41-1.678.68-2.492.455-1.378 1.883-2.106 3.188-1.625 1.305.482 1.994 1.992 1.539 3.367a18.821 18.821 0 0 0-.526 1.927zM26.346 16.55a15.62 15.62 0 0 0-1.732.83l-.003.001c-.619.345-1.226.736-1.802 1.165-1.147.853-2.677.47-3.416-.857-.738-1.326-.406-3.093.742-3.946a21.168 21.168 0 0 1 2.335-1.509 20.41 20.41 0 0 1 2.24-1.072c1.288-.522 2.698.26 3.15 1.749.452 1.488-.228 3.118-1.514 3.64zM40.224 18.56a16.32 16.32 0 0 0-1.64-1.055 15.604 15.604 0 0 0-1.907-.908c-1.29-.506-1.983-2.139-1.547-3.643.437-1.503 1.836-2.31 3.126-1.802.838.33 1.668.725 2.467 1.174l.004.002a21.21 21.21 0 0 1 2.117 1.362c1.154.844 1.502 2.619.779 3.963-.724 1.345-2.248 1.75-3.399.908zM50.818 23.746c.303.894.557 1.817.756 2.744l.001.006c.18.84.317 1.701.41 2.559.153 1.452-.826 2.763-2.188 2.928-1.362.165-2.593-.881-2.747-2.332a19.2 19.2 0 0 0-.316-1.978v-.004a19 19 0 0 0-.585-2.121c-.467-1.373.2-2.892 1.49-3.39 1.289-.497 2.712.214 3.179 1.588zM48.78 38.387c1.203.757 1.58 2.37.842 3.605a23.199 23.199 0 0 1-1.586 2.318l-.003.003a22.855 22.855 0 0 1-1.67 1.918 2.511 2.511 0 0 1-3.614.003 2.67 2.67 0 0 1-.002-3.706c.455-.468.89-.966 1.29-1.483l.003-.003c.443-.57.855-1.173 1.226-1.792.736-1.232 2.312-1.62 3.515-.863z"/>
    </g>
</svg>
