<svg xmlns="http://www.w3.org/2000/svg" width="30" height="31" viewBox="0 0 30 31">
    <g fill="#53555A" fill-rule="nonzero" stroke="#53555A" stroke-width=".5">
        <path d="M14.04 28.338H6.422c-2.07 0-3.75-1.674-3.75-3.723V6.385c0-2.055 1.686-3.723 3.75-3.723h7.74a.83.83 0 1 0 0-1.662h-7.74C3.429 1 1 3.419 1 6.385v18.23C1 27.587 3.436 30 6.423 30h7.616a.83.83 0 1 0 0-1.662z"/>
        <path d="M28.75 14.871L23.347 9.26a.826.826 0 0 0-1.203 0 .904.904 0 0 0 0 1.25l3.955 4.106H8.85c-.472 0-.85.393-.85.883s.378.883.85.883H26.1l-3.956 4.107a.904.904 0 0 0 0 1.25.815.815 0 0 0 1.197 0l5.403-5.612a.906.906 0 0 0 .006-1.256z"/>
    </g>
</svg>
