<svg xmlns="http://www.w3.org/2000/svg" width="19" height="16" viewBox="0 0 19 16">
    <g fill="#FFF" fill-rule="nonzero">
        <path d="M18.258 3.183a2.477 2.477 0 0 0-1.791-.721H14.25l-.504-1.308C13.62.84 13.39.569 13.058.341 12.725.114 12.383 0 12.034 0H6.967c-.35 0-.691.114-1.025.341-.333.228-.562.499-.687.813L4.75 2.462H2.533c-.7 0-1.296.24-1.79.72A2.338 2.338 0 0 0 0 4.924v8.615c0 .68.247 1.26.742 1.74.495.482 1.092.722 1.791.722h13.934c.7 0 1.296-.24 1.79-.721.496-.48.743-1.061.743-1.74V4.922c0-.68-.247-1.26-.742-1.74zm-5.626 9.091c-.867.843-1.911 1.265-3.132 1.265-1.22 0-2.264-.422-3.132-1.265-.868-.843-1.301-1.857-1.301-3.043 0-1.186.434-2.2 1.301-3.043.868-.843 1.911-1.265 3.132-1.265 1.22 0 2.265.422 3.132 1.265.868.843 1.301 1.857 1.301 3.043 0 1.186-.433 2.2-1.3 3.043z"/>
        <path d="M9.5 7c-.689 0-1.277.245-1.766.734A2.408 2.408 0 0 0 7 9.5c0 .689.245 1.278.734 1.767A2.408 2.408 0 0 0 9.5 12c.689 0 1.277-.245 1.766-.733A2.408 2.408 0 0 0 12 9.5c0-.689-.245-1.277-.734-1.766A2.408 2.408 0 0 0 9.5 7z"/>
    </g>
</svg>
