<svg xmlns="http://www.w3.org/2000/svg" width="14" height="14" viewBox="0 0 14 14">
    <g fill="#FF4545" fill-rule="nonzero">
        <path d="M4.833 74L.086 69.253a.292.292 0 0 1 0-.413l1.754-1.754a.292.292 0 0 1 .412 0L7 71.833l4.748-4.747a.3.3 0 0 1 .412 0l1.755 1.754a.292.292 0 0 1 0 .413L9.167 74l4.748 4.748a.292.292 0 0 1 0 .412l-1.755 1.754a.292.292 0 0 1-.412 0L7 76.167l-4.748 4.747a.292.292 0 0 1-.412 0L.085 79.16a.292.292 0 0 1 0-.412L4.833 74zM4.833 7L.086 2.253a.292.292 0 0 1 0-.413L1.84.086a.292.292 0 0 1 .412 0L7 4.833 11.748.086a.3.3 0 0 1 .412 0l1.755 1.754a.292.292 0 0 1 0 .413L9.167 7l4.748 4.748a.292.292 0 0 1 0 .412l-1.755 1.754a.292.292 0 0 1-.412 0L7 9.167l-4.748 4.747a.292.292 0 0 1-.412 0L.085 12.16a.292.292 0 0 1 0-.412L4.833 7z"/>
    </g>
</svg>
