<svg xmlns="http://www.w3.org/2000/svg" width="55" height="51" viewBox="0 0 55 51">
    <g fill="#4FB79B" fill-rule="nonzero">
        <path d="M24.707 33.708a1.002 1.002 0 0 0-1.415-1.415 1.002 1.002 0 0 0 0 1.415c.392.39 1.024.39 1.415 0zM25.071 8.2v2.2c0 3.646 2.877 6.6 6.429 6.6 3.545 0 6.429-2.96 6.429-6.6V8.2C38.52 8.2 39 7.708 39 7.1c0-.608-.48-1.1-1.071-1.1h-2.143c-.592 0-1.072.492-1.072 1.1 0 .608.48 1.1 1.072 1.1v2.2c0 2.426-1.923 4.4-4.286 4.4-2.367 0-4.286-1.97-4.286-4.4V8.2c.592 0 1.072-.492 1.072-1.1 0-.608-.48-1.1-1.072-1.1h-2.143C24.48 6 24 6.492 24 7.1c0 .608.48 1.1 1.071 1.1z"/>
        <path d="M12.484 50.687c.21.209.485.313.76.313.274 0 .55-.105.759-.314l3.299-3.29a4.955 4.955 0 0 0 1.442-4.022l1.183-1.14a4.99 4.99 0 0 1 3.475-1.4h14.143c2.534 0 4.929-.97 6.743-2.733.027-.026.052-.054.076-.082l9.623-11.53a4.286 4.286 0 0 0-.51-6.043 4.315 4.315 0 0 0-6.03.48L46.407 22V1.072C46.408.48 45.928 0 45.335 0H17.725c-.593 0-1.074.48-1.074 1.072v24.012c-4.16.871-7.46 3.448-9.237 7.214a4.967 4.967 0 0 0-3.782 1.455L.316 37.044a1.072 1.072 0 0 0 0 1.518l12.168 12.125zM44.26 2.143v22.072l-3.108 3.207a4.32 4.32 0 0 0-3.337-1.592H25.359a.594.594 0 0 1-.219-.046 13.91 13.91 0 0 0-5.266-1.026c-.36 0-.718.013-1.074.036V2.144h25.46zm-26.38 24.9c2.173-.314 4.346-.13 6.454.727.335.135.68.204 1.026.204h12.455c1.165 0 2.148.947 2.148 2.143a2.148 2.148 0 0 1-2.148 2.144h-9.346c-.593 0-1.075.48-1.075 1.071 0 .592.482 1.072 1.075 1.072h9.346a4.297 4.297 0 0 0 4.258-4.85 19181.417 19181.417 0 0 0 6.99-7.214 2.16 2.16 0 0 1 3.03-.255 2.144 2.144 0 0 1 .25 3.027l-9.592 11.49a7.484 7.484 0 0 1-5.205 2.089H23.402a7.13 7.13 0 0 0-4.967 2l-.473.457a4.992 4.992 0 0 0-.66-.81l-6.598-6.584a5.016 5.016 0 0 0-1.185-.874c1.641-3.23 4.573-5.288 8.36-5.837zM5.149 35.27a2.853 2.853 0 0 1 4.036 0l6.598 6.583a2.838 2.838 0 0 1 0 4.026l-2.54 2.534L2.596 37.805 5.15 35.27z"/>
    </g>
</svg>
