<svg xmlns="http://www.w3.org/2000/svg" width="54" height="71" viewBox="0 0 54 71">
    <g fill="#4FB79B" fill-rule="nonzero">
        <path d="M49.41 19.186c-1.213-3.272-3.007-6.047-5.331-8.253-2.375-2.258-5.302-3.909-8.716-4.923l-.007-.007C31.557 2.132 26.502 0 21.127 0c-5.374 0-10.422 2.132-14.22 6.003-3.8 3.871-5.891 9.023-5.891 14.5 0 1.4.138 2.776.407 4.123-1.04 3.087-1.511 6.359-1.41 9.779.175 5.81 2.027 11.91 5.491 18.127.008.008.015.022.022.03C6.877 62.969 15.615 71 26.196 71c9.32 0 17.214-6.232 19.887-14.833a19.65 19.65 0 0 0 2.027-1.814c3.798-3.871 5.89-9.023 5.89-14.5 0-3.768-.988-7.38-2.84-10.526.015-1.917-.174-5.9-1.75-10.141zM35.574 52.199c-2.434 0-4.402-2.006-4.402-4.486s1.968-4.485 4.402-4.485c2.433 0 4.401 2.006 4.401 4.485 0 2.48-1.976 4.486-4.401 4.486zm2.41-19.985h10.598a16.938 16.938 0 0 1 1.794 7.638c0 3.701-1.17 7.217-3.327 10.119v-.23c0-7.276-3.595-13.7-9.064-17.527zm9.537-3.701h-1.474c-5.578 0-11.142-.09-16.727-.097-4.053 0-8.2.37-11.904 2.05-6.058 2.747-9.69 8.668-11.265 15.027-.087-.215-.167-.43-.254-.644-1.395-3.627-2.158-7.165-2.26-10.563a25.368 25.368 0 0 1 .124-3.42c.11-1.036.283-2.057.523-3.057a23.008 23.008 0 0 1 2.419-6.106c2.237-3.916 5.614-7.232 9.776-9.579 3.878-2.19 8.236-3.397 12.26-3.397 1.278 0 2.513.118 3.675.363.341.074.683.148 1.01.23 1.067.266 2.084.606 3.036 1.006 1.045.444 2.026.962 2.927 1.569 3 1.991 5.207 4.848 6.595 8.557a24.02 24.02 0 0 1 1.082 3.93c.21 1.103.327 2.117.385 2.976.043.414.065.807.072 1.155zM21.134 3.7c2.267 0 4.46.466 6.486 1.347-4.307.2-8.839 1.547-12.892 3.834-3.994 2.258-7.364 5.308-9.863 8.912a16.757 16.757 0 0 1 4.612-9.163c3.109-3.183 7.249-4.93 11.657-4.93zm-4.096 48.498c-2.433 0-4.401-2.006-4.401-4.486 0-1.391.617-2.627 1.59-3.45a4.422 4.422 0 0 1 1.678-.88c.363-.096.74-.148 1.126-.148.24 0 .472.022.704.06 2.1.34 3.697 2.19 3.697 4.426 0 .858-.24 1.665-.646 2.346-.327.54-.756 1-1.264 1.355a4.218 4.218 0 0 1-1.75.718c-.233.037-.48.059-.734.059zm12.544 12.51c-.429.976-1.73 1.687-3.276 1.687-1.547 0-2.855-.71-3.276-1.688-.152-.34.218-.688.734-.688h5.099c.508 0 .871.34.719.688zm-.727-2.57h-5.098c-.516 0-.88-.347-.734-.688.356-.821 1.017-1.45 2.2-1.635.146-.023.291 0 .43.066l.326.163a.71.71 0 0 0 .646 0l.32-.163a.714.714 0 0 1 .428-.066c1.184.177 1.845.814 2.201 1.635.16.348-.203.689-.719.689z"/>
        <path d="M19.838 50.044c.156-.29.208-.657.119-1.015-.149-.589-.624-.956-1.13-.93a1.237 1.237 0 0 0-.245.043 6.347 6.347 0 0 1-1.678.298c-.09 0-.178.009-.268.009a6.193 6.193 0 0 1-1.879-.282c-.104-.034-.2-.068-.297-.102-.587-.222-1.21.145-1.404.81-.193.674.127 1.391.706 1.613a7.918 7.918 0 0 0 2.206.486 8.286 8.286 0 0 0 3.223-.375c.283-.077.506-.282.647-.555zM37.582 48.15a6.333 6.333 0 0 1-1.946.299 6.269 6.269 0 0 1-2.176-.384c-.587-.222-1.21.145-1.404.81-.193.674.127 1.391.706 1.613a8.056 8.056 0 0 0 2.874.512c.891 0 1.746-.137 2.555-.401.594-.196.936-.904.765-1.579-.163-.674-.78-1.066-1.374-.87z"/>
    </g>
</svg>
