<svg xmlns="http://www.w3.org/2000/svg" width="38" height="42" viewBox="0 0 38 42">
    <g fill="#FFF" fill-rule="nonzero">
        <path d="M19.64 26.992a2.447 2.447 0 0 0 1.792-1.003l6.438-8.899a.688.688 0 0 0-.96-.96l-8.902 6.439a2.447 2.447 0 0 0 1.632 4.423zm-1.262-2.526c.024-.314.185-.6.438-.785l5.43-3.927-3.927 5.428a1.076 1.076 0 0 1-1.94-.716z"/>
        <path d="M35.09 13.695c-.008-.015-.008-.03-.015-.045-.009-.014-.022-.022-.031-.035a19.025 19.025 0 0 0-2.486-3.366l1.498-1.503.986.99L38 6.766l-2.958-2.97-2.96 2.97.988.99-1.498 1.503a18.941 18.941 0 0 0-3.354-2.496c-.013-.01-.02-.023-.035-.031-.014-.009-.03-.008-.044-.016a18.648 18.648 0 0 0-7.164-2.382V3.5h1.046c.961 0 1.743-.785 1.743-1.75S22.982 0 22.02 0h-6.276C14.782 0 14 .785 14 1.75s.782 1.75 1.744 1.75h1.046v.81c-.753.08-1.505.203-2.248.374a.7.7 0 0 0 .311 1.364c.642-.148 1.29-.259 1.939-.334l.748-.058c.229-.018.44-.03.645-.04V7a.698.698 0 1 0 1.394 0V5.621c2.623.121 5.095.828 7.292 1.991l-.688 1.195a.702.702 0 0 0 .604 1.05.696.696 0 0 0 .604-.35l.686-1.192a17.603 17.603 0 0 1 5.42 5.44l-1.188.689a.701.701 0 0 0 .35 1.306.69.69 0 0 0 .349-.094l1.19-.69a17.425 17.425 0 0 1 1.987 7.433h-1.377a.698.698 0 0 0-.698.7c0 .387.312.7.698.7h1.377a17.425 17.425 0 0 1-1.987 7.434l-1.19-.69a.695.695 0 0 0-.953.256.702.702 0 0 0 .255.956l1.188.688a17.603 17.603 0 0 1-5.42 5.44l-.685-1.192a.695.695 0 0 0-.953-.256.7.7 0 0 0-.255.956l.687 1.195a17.248 17.248 0 0 1-7.291 1.992V39.2a.698.698 0 1 0-1.395 0v1.383a17.535 17.535 0 0 1-3.33-.432.694.694 0 0 0-.836.526.7.7 0 0 0 .524.839c1.392.322 2.814.484 4.224.484.034 0 .067-.002.101-.003.005 0 .009.003.013.003.006 0 .01-.004.016-.004a18.653 18.653 0 0 0 9.218-2.5c.022-.01.045-.015.066-.028.014-.008.022-.022.035-.03a19.002 19.002 0 0 0 6.815-6.833c.013-.02.03-.034.042-.055.008-.015.008-.03.015-.045a18.82 18.82 0 0 0 2.508-9.405c0-3.423-.916-6.633-2.508-9.405zm-.049-7.92l.986.99-.986.991-.987-.99.987-.99zm-16.856-1.56V2.1h-2.441a.35.35 0 0 1 0-.7h6.276a.35.35 0 0 1 0 .7h-2.44v2.115c-.243-.01-.475-.015-.698-.015l-.061.001-.053-.001c-.114 0-.228.008-.343.01-.08.002-.157.001-.24.005z"/>
        <path d="M13.286 10H9.714C9.32 10 9 10.447 9 11c0 .553.32 1 .714 1h3.572c.395 0 .714-.447.714-1 0-.553-.32-1-.714-1zM13.333 14H6.667C6.298 14 6 14.447 6 15c0 .553.298 1 .667 1h6.666c.369 0 .667-.447.667-1 0-.553-.298-1-.667-1zM13.294 19H2.706c-.39 0-.706.447-.706 1 0 .553.316 1 .706 1h10.588c.39 0 .706-.447.706-1 0-.553-.316-1-.706-1zM13.333 24H.667C.298 24 0 24.447 0 25c0 .553.298 1 .667 1h12.666c.369 0 .667-.447.667-1 0-.553-.298-1-.667-1zM13.333 29H4.667C4.298 29 4 29.447 4 30c0 .553.298 1 .667 1h8.666c.369 0 .667-.447.667-1 0-.553-.298-1-.667-1zM13.333 34H8.667C8.298 34 8 34.447 8 35c0 .553.298 1 .667 1h4.666c.369 0 .667-.447.667-1 0-.553-.298-1-.667-1z"/>
    </g>
</svg>
