<?xml version="1.0" encoding="utf-8"?>
<!-- Generator: Adobe Illustrator 22.0.1, SVG Export Plug-In . SVG Version: 6.00 Build 0)  -->
<svg version="1.1" xmlns="http://www.w3.org/2000/svg"  x="0px" y="0px" viewBox="0 0 66.1 65.1">
<path d="M3.9,32.3L3.9,32.3c0,16,13,28.9,28.9,28.9c16,0,28.9-13,28.9-28.9c0-16-13-28.9-28.9-28.9
	C16.8,3.4,3.9,16.4,3.9,32.3 M0.8,32.3c0-17.6,14.4-32,32-32c17.7,0,32,14.3,32,32c0,17.6-14.3,32-32,32C15.1,64.3,0.8,50,0.8,32.3
	 M12.8,22.2H20c0.3,0,0.5,0.2,0.7,0.4c1.7,3.6,3.7,6.9,6.1,9.7c0.2,0.3,0.7,0.3,0.9-0.1c0.8-1.8,2.2-6.3-0.5-9.5
	c-0.2-0.3-0.1-0.7,0.2-0.9c2.7-1.1,5.4-1.3,8.1-0.1c0.5,0.2,0.9,0.8,0.9,1.4l0.6,9.3c0,0.4,0.4,0.7,0.8,0.7c3-0.6,4.8-5.2,6.5-9.9
	c0.2-0.6,0.8-1,1.4-1h6.6c0.5,0,1,0.5,0.9,1c-0.6,3.3-4,7.7-5.7,9.8c-0.6,0.7-0.6,1.8,0,2.5l5.9,7.1c0.4,0.5,0.1,1.3-0.6,1.3h-7.5
	c-0.6,0-1.2-0.3-1.6-0.7l-5.3-4.4c-0.3-0.3-0.8-0.4-1-0.1c-0.7,0.8-0.6,1.8-0.9,4c-0.1,0.7-0.7,1.2-1.4,1.2h-5.1
	c-0.7,0-1.5-0.1-2.1-0.5c-2.9-1.4-11-6.4-15.5-20.2C12,22.6,12.3,22.2,12.8,22.2"/>
</svg>
